<svg id="Capa_1" enable-background="new 0 0 512 512" height="512" viewBox="0 0 512 512" width="512" xmlns="http://www.w3.org/2000/svg"><g><g id="White_Crane_1_"><g><path d="m316 512h-60v-107h30v77h30z" fill="#4d3e3e"/></g><g><path d="m391 30h75v30h-75z" fill="#ffcb66"/></g></g><g><path d="m271 420h-144.258l31.729-63.457c-30.381-9.595-52.471-38.042-52.471-71.543v-.073c-18.926-14.165-30-35.991-30-59.927v-.073c-18.926-14.165-30-35.991-30-59.927v-15h201.211l68.789 68.789v-173.789c0-24.814 20.186-45 45-45s45 20.186 45 45v240c0 74.443-60.557 135-135 135z" fill="#ecf2ff"/></g><path d="m361 0c-24.814 0-45 20.186-45 45v173.789l-68.789-68.789h-21.211v270h45c74.443 0 135-60.557 135-135v-240c0-24.814-20.186-45-45-45z" fill="#d9e5ff"/></g></svg>